<svg height="512pt" viewBox="0 0 512 512" width="512pt" xmlns="http://www.w3.org/2000/svg"><path d="m512 256c0 141.386719-114.613281 256-256 256s-256-114.613281-256-256 114.613281-256 256-256 256 114.613281 256 256zm0 0" fill="#555a66"/><path d="m512 256c0-1.75-.03125-3.492188-.066406-5.234375l-139.136719-139.136719-228.304687 294.90625 105.386718 105.386719c2.035156.046875 4.074219.078125 6.121094.078125 141.386719 0 256-114.613281 256-256zm0 0" fill="#333940"/><path d="m332.355469 420.996094h-152.710938c-27.601562 0-49.976562-22.375-49.976562-49.976563v-230.039062c0-27.601563 22.375-49.976563 49.976562-49.976563h152.710938c27.601562 0 49.976562 22.375 49.976562 49.976563v230.039062c0 27.601563-22.375 49.976563-49.976562 49.976563zm0 0" fill="#fff"/><path d="m332.355469 91.003906h-76.449219v329.992188h76.449219c27.601562 0 49.976562-22.375 49.976562-49.976563v-230.039062c0-27.601563-22.375-49.976563-49.976562-49.976563zm0 0" fill="#e9edf5"/><path d="m171.257812 244.40625c0-24.136719 19.566407-43.707031 43.707032-43.707031 18.839844 0 34.796875 11.921875 40.9375 28.628906 6.144531-16.707031 22.292968-28.628906 41.132812-28.628906 24.136719 0 43.707032 19.570312 43.707032 43.707031 0 63.421875-84.839844 96.890625-84.839844 96.890625s-84.644532-34.84375-84.644532-96.890625zm0 0" fill="#ff583e"/><path d="m297.035156 200.699219c-18.839844 0-34.988281 11.921875-41.128906 28.628906-.0625-.164063.0625-.324219 0-.488281v112.378906c.117188.050781 0 .082031 0 .082031s84.835938-33.472656 84.835938-96.894531c0-24.136719-19.566407-43.707031-43.707032-43.707031zm0 0" fill="#ea1d13"/><path d="m160.472656 137.8125c0-8.144531 6.601563-14.746094 14.746094-14.746094 6.355469 0 11.769531 4.023438 13.84375 9.660156 2.070312-5.636718 7.488281-9.660156 13.839844-9.660156 8.144531 0 14.746094 6.601563 14.746094 14.746094 0 21.394531-28.585938 32.683594-28.585938 32.683594s-28.589844-11.753906-28.589844-32.683594zm0 0" fill="#ff583e"/><path d="m306.15625 366.242188c0-8.140626 6.601562-14.742188 14.742188-14.742188 6.355468 0 11.773437 4.019531 13.84375 9.65625 2.070312-5.636719 7.488281-9.65625 13.84375-9.65625 8.140624 0 14.742187 6.601562 14.742187 14.742188 0 21.398437-28.585937 32.6875-28.585937 32.6875s-28.585938-11.753907-28.585938-32.6875zm0 0" fill="#ea1d13"/></svg>